PathFileType	4	(X/Y/Z)	Patient4_TMGait_0pt4_02_left_42.trc.trc
DataRate	CameraRate	NumFrames	NumMarkers	Units	OrigDataRate	OrigDataStartFrame	OrigNumFrames
74.468085106383	74.468085106383	4	33	mm	74.468085106383	89	       141
Frame#	Time	Sacral			L.Shoulder			Chest			R.Shoulder			Neck			R.ASIS			L.ASIS			R.Thigh.Superior			R.Thigh.Lateral			R.Thigh.Inferior			R.Patella			L.Thigh.Superior			L.Thigh.Lateral			L.Thigh.Inferior			L.Patella			L.Shank.Superior			L.Shank.Lateral			L.Shank.Inferior			R.Shank.Superior			R.Shank.Lateral			R.Shank.Inferior			R.Heel			R.Midfoot.Superior			R.Midfoot.Lateral			R.Toe			L.Heel			L.Midfoot.Lateral			L.Midfoot.Superior			L.Toe			L.Elbow			L.Wrist			R.Elbow			R.Wrist			
		X1	Y1	Z1	X2	Y2	Z2	X3	Y3	Z3	X4	Y4	Z4	X5	Y5	Z5	X6	Y6	Z6	X7	Y7	Z7	X8	Y8	Z8	X9	Y9	Z9	X10	Y10	Z10	X11	Y11	Z11	X12	Y12	Z12	X13	Y13	Z13	X14	Y14	Z14	X15	Y15	Z15	X16	Y16	Z16	X17	Y17	Z17	X18	Y18	Z18	X19	Y19	Z19	X20	Y20	Z20	X21	Y21	Z21	X22	Y22	Z22	X23	Y23	Z23	X24	Y24	Z24	X25	Y25	Z25	X26	Y26	Z26	X27	Y27	Z27	X28	Y28	Z28	X29	Y29	Z29	X30	Y30	Z30	X31	Y31	Z31	X32	Y32	Z32	X33	Y33	Z33	

89	57.141714285714	830.151679020841	995.550251223653	517.756673439329	994.449503298587	1433.260696839032	342.573483076921	1092.613577666258	1370.492365678849	508.675165218332	995.869253404641	1435.073878966361	679.275823798896	963.821723315835	1493.449328090329	500.177912209958	1060.442875779621	944.426816354822	641.702838996801	1052.331283577111	964.256759552144	366.857292428060	1118.183705167256	748.204440069946	614.175606638147	1046.495773737014	634.014236326395	676.887387584311	1129.070301261186	587.233247134972	597.965152364680	1136.879316065599	499.102582958682	606.191890955772	1085.888802961176	738.680320991474	387.747731096527	991.603739263937	628.327951289340	318.627257953688	1074.294829894238	541.142259777278	374.171281447810	1066.067169925428	459.672343320673	370.534675557677	1005.958981705320	399.951230936434	362.993304698260	873.622772397644	336.403709020546	313.640125106645	879.295942739335	206.561939754543	368.878784909402	1111.323201206339	408.623296988321	616.705037197561	1043.692285378693	304.741193449358	682.174482947634	1088.440686381057	209.204442220465	622.286722405283	960.246204429175	42.706756162660	598.567116736114	1130.097475778910	97.772742565241	631.765114482729	1044.096036484620	37.034334976507	673.211820162610	1251.800973924126	48.351446390657	659.386554089001	705.365087549864	100.839853989464	407.347110072090	772.100961516373	70.690336016583	327.989450410898	869.886573201145	107.582019260132	349.315081358339	974.847474201007	35.810869197861	323.298054861676	1020.949110779018	1088.550219033842	207.446546983853	1200.788734676880	897.315695630500	185.259110304610	960.032101010753	1088.269847779407	801.304690530251	1084.892990066532	858.427258969011	801.595832544074	
90	57.155142857143	829.858838289297	995.879619593784	521.591052264648	992.931729607374	1433.599896980980	345.573273492275	1092.450270966390	1370.852190776989	510.872015719978	997.171660904737	1435.458715126206	682.232354073537	963.620458534683	1493.787713496401	503.403025438584	1061.008155354650	945.023745741449	644.241872807090	1051.032569727874	964.351780529311	369.602966807723	1116.951079855463	747.576785658132	617.164362292334	1044.026843482442	633.883487149546	679.168977756943	1126.147293987693	586.654417645908	600.121680247629	1133.111860938739	498.578977715613	607.772675127013	1090.864409911468	741.155937192338	390.512928447212	1001.350556790312	628.515383690793	320.333834887701	1086.927573590446	543.198921749441	375.845353333339	1079.859877725073	460.409979653642	371.192512009490	1017.547088520154	400.896508558748	363.534460252979	882.871915635670	342.334808600771	314.290175745173	884.284883001944	212.014605543549	368.286295490317	1107.344917900673	408.184198348207	617.983753301225	1039.516221034276	304.285210070521	682.974460659765	1083.696907048159	208.840940951322	622.711368736791	954.822355361716	42.664177512497	598.628752231773	1124.747666650874	97.710305743898	631.989670049155	1038.678442248112	36.974034138687	673.328130059796	1246.444748180251	48.111777613117	659.571619280387	706.398343784458	115.285587424939	406.693073551632	770.989638450414	80.465485338672	327.598066879903	870.685896452281	111.346195315034	348.423918271510	969.916388239474	34.715046088932	323.300152677457	1016.683052708065	1087.856124405731	212.252319925159	1183.842768748288	885.541704236185	189.038019594524	968.802813739589	1088.579206203378	806.685948135486	1104.437750389518	865.067958377745	806.214021306669	
91	57.168571428571	829.381987638194	996.167505883709	525.356111305808	991.381482916190	1433.786047997133	348.375962705415	1092.275504885676	1371.082181096544	512.864238578030	998.538749689545	1435.824766213983	684.988489550216	963.462784748433	1494.056614850332	506.393232444182	1061.345161348192	945.485752245303	646.660980587087	1049.480834865160	964.308052162065	372.226016427042	1115.528585809642	746.953695889690	619.824020218787	1041.572969055317	633.748278348584	681.340872336318	1123.085961741662	586.078972219755	602.041776936632	1129.221518655347	498.055580756516	609.224782340493	1095.664222241463	743.925359166203	393.209709760826	1011.186680650826	629.120983972790	321.885492887331	1099.483807465190	545.877437085155	377.538051997473	1093.760920042560	461.889452710948	372.040577440936	1029.536720045195	402.400286807790	364.170663415647	892.827506820718	348.694077463619	314.878110403414	890.047430032412	218.083516533075	367.826520918449	1103.277119911418	407.741509846106	619.168946039838	1035.282897155609	303.830322427177	683.760152762773	1078.873591396039	208.471431660898	623.084567060887	949.325101393346	42.624192663040	598.684775016728	1119.361858696607	97.636128945362	632.213380088238	1033.198858128506	36.906785140626	673.435831153932	1241.030988404248	47.821537761543	659.726839054304	708.598729381954	130.783683358230	406.113971578630	770.779458949217	91.373708085196	327.250613342872	872.167189726013	115.788680556399	347.728091239038	965.181908302856	33.538528598254	323.349843379502	1012.060474298764	1087.007356688912	216.914426463421	1166.062416058909	874.603579857235	193.072623039308	977.686396054432	1089.152940604060	811.943735507362	1124.056998474468	872.700177363198	810.309847758013	
92	57.182000000000	828.740283500880	996.415300901881	529.023388017678	989.836354881929	1433.830383397000	350.962030967415	1092.089839944792	1371.188612199274	514.650558188033	999.930741121173	1436.164624927296	687.526377541314	963.358691978387	1494.264877003920	509.124016369165	1061.463584596356	945.809485587294	648.954739937420	1047.759415817374	964.161826876113	374.706190150898	1113.985292372176	746.365019518779	622.103786817065	1039.234657129461	633.619816220501	683.389121532723	1119.988214232916	585.520763090457	603.707613283366	1125.318985368110	497.535846310250	610.538699950134	1100.179536931046	746.984347896666	395.829518387589	1020.875163141626	630.187583997483	323.307656791483	1111.711800526613	549.189123648161	379.228007261152	1107.530768453709	464.123984470609	373.051160028559	1041.693720804582	404.470654323401	364.913463279070	903.262713672629	355.368710315090	315.438323906173	896.466901847317	224.635574468719	367.562693281287	1099.212599876337	407.299768920106	620.254680734042	1031.069664965135	303.394377722910	684.538800597911	1074.031936604827	208.105088885761	623.411077838822	943.794051507447	42.591468481987	598.747703983936	1113.967067498213	97.561380354511	632.429961899409	1027.694656464518	36.841525622333	673.543510229841	1235.590623974386	47.514236881376	659.859563411891	711.939741262809	146.871537717044	405.665450854501	771.544915729738	103.119607394636	326.989974901707	874.341181815540	120.855159813107	347.280712606954	960.850563182998	32.363868194211	323.448377575774	1006.967927571623	1086.008910630996	221.431853844184	1147.597208980257	864.621180775108	197.367092178042	986.651395534305	1089.973482264286	817.014801062435	1143.632265285225	881.319940013941	813.822433390093	
